<svg xmlns="http://www.w3.org/2000/svg" viewBox="0 0 800 900" width="800" height="900" preserveAspectRatio="xMidYMid slice" role="img" aria-label="CONFINED SPACE">
  <defs>
    <linearGradient id="g-confined-space-safety-harness-delhi-svg" x1="0" y1="0" x2="1" y2="1">
      <stop offset="0%" stop-color="#2E3338"/>
      <stop offset="100%" stop-color="#3C4148"/>
    </linearGradient>
    <pattern id="hz-confined-space-safety-harness-delhi-svg" width="60" height="60" patternUnits="userSpaceOnUse" patternTransform="rotate(45)">
      <rect width="30" height="60" fill="rgba(255,195,0,0.10)"/>
    </pattern>
    <pattern id="gr-confined-space-safety-harness-delhi-svg" width="40" height="40" patternUnits="userSpaceOnUse">
      <path d="M40 0 L0 0 0 40" fill="none" stroke="rgba(255,195,0,0.10)" stroke-width="1"/>
    </pattern>
  </defs>
  <rect width="100%" height="100%" fill="url(#g-confined-space-safety-harness-delhi-svg)"/>
  <rect width="100%" height="100%" fill="url(#hz-confined-space-safety-harness-delhi-svg)"/>
  <rect width="100%" height="100%" fill="url(#gr-confined-space-safety-harness-delhi-svg)"/>
  <g stroke="#FFC300" stroke-width="3" fill="none">
    <path d="M20 20 L60 20 M20 20 L20 60"/>
    <path d="M780 20 L740 20 M780 20 L780 60"/>
    <path d="M20 880 L60 880 M20 880 L20 840"/>
    <path d="M780 880 L740 880 M780 880 L780 840"/>
  </g>
  <g font-family="'Archivo','Inter',sans-serif" fill="#FFC300" text-anchor="middle">
    <text x="50%" y="45%" font-size="44" font-weight="800" letter-spacing="1">CONFINED SPACE</text>
    <text x="50%" y="56%" font-size="28" font-family="'IBM Plex Mono',monospace" opacity="0.75">800 &#215; 900</text>
  </g>
</svg>
