<svg xmlns="http://www.w3.org/2000/svg" viewBox="0 0 240 240" width="240" height="240" preserveAspectRatio="xMidYMid slice" role="img" aria-label="TELECOM">
  <defs>
    <linearGradient id="g-industry-telecom-svg" x1="0" y1="0" x2="1" y2="1">
      <stop offset="0%" stop-color="#FFC300"/>
      <stop offset="100%" stop-color="#FFD84D"/>
    </linearGradient>
    <pattern id="hz-industry-telecom-svg" width="60" height="60" patternUnits="userSpaceOnUse" patternTransform="rotate(45)">
      <rect width="30" height="60" fill="rgba(26,26,26,0.12)"/>
    </pattern>
    <pattern id="gr-industry-telecom-svg" width="40" height="40" patternUnits="userSpaceOnUse">
      <path d="M40 0 L0 0 0 40" fill="none" stroke="rgba(26,26,26,0.12)" stroke-width="1"/>
    </pattern>
  </defs>
  <rect width="100%" height="100%" fill="url(#g-industry-telecom-svg)"/>
  <rect width="100%" height="100%" fill="url(#hz-industry-telecom-svg)"/>
  <rect width="100%" height="100%" fill="url(#gr-industry-telecom-svg)"/>
  <g stroke="#1A1A1A" stroke-width="3" fill="none">
    <path d="M20 20 L60 20 M20 20 L20 60"/>
    <path d="M220 20 L180 20 M220 20 L220 60"/>
    <path d="M20 220 L60 220 M20 220 L20 180"/>
    <path d="M220 220 L180 220 M220 220 L220 180"/>
  </g>
  <g font-family="'Archivo','Inter',sans-serif" fill="#1A1A1A" text-anchor="middle">
    <text x="50%" y="45%" font-size="13" font-weight="800" letter-spacing="1">TELECOM</text>
    <text x="50%" y="56%" font-size="8" font-family="'IBM Plex Mono',monospace" opacity="0.75">240 &#215; 240</text>
  </g>
</svg>
