<svg xmlns="http://www.w3.org/2000/svg" viewBox="0 0 1200 700" width="1200" height="700" preserveAspectRatio="xMidYMid slice" role="img" aria-label="OKHLA FACTORY FLOOR">
  <defs>
    <linearGradient id="g-metro-safety-factory-okhla-delhi-svg" x1="0" y1="0" x2="1" y2="1">
      <stop offset="0%" stop-color="#1A1A1A"/>
      <stop offset="100%" stop-color="#2A2A2A"/>
    </linearGradient>
    <pattern id="hz-metro-safety-factory-okhla-delhi-svg" width="60" height="60" patternUnits="userSpaceOnUse" patternTransform="rotate(45)">
      <rect width="30" height="60" fill="rgba(255,195,0,0.10)"/>
    </pattern>
    <pattern id="gr-metro-safety-factory-okhla-delhi-svg" width="40" height="40" patternUnits="userSpaceOnUse">
      <path d="M40 0 L0 0 0 40" fill="none" stroke="rgba(255,195,0,0.10)" stroke-width="1"/>
    </pattern>
  </defs>
  <rect width="100%" height="100%" fill="url(#g-metro-safety-factory-okhla-delhi-svg)"/>
  <rect width="100%" height="100%" fill="url(#hz-metro-safety-factory-okhla-delhi-svg)"/>
  <rect width="100%" height="100%" fill="url(#gr-metro-safety-factory-okhla-delhi-svg)"/>
  <g stroke="#FFC300" stroke-width="3" fill="none">
    <path d="M20 20 L60 20 M20 20 L20 60"/>
    <path d="M1180 20 L1140 20 M1180 20 L1180 60"/>
    <path d="M20 680 L60 680 M20 680 L20 640"/>
    <path d="M1180 680 L1140 680 M1180 680 L1180 640"/>
  </g>
  <g font-family="'Archivo','Inter',sans-serif" fill="#FFC300" text-anchor="middle">
    <text x="50%" y="45%" font-size="66" font-weight="800" letter-spacing="1">OKHLA FACTORY FLOOR</text>
    <text x="50%" y="56%" font-size="42" font-family="'IBM Plex Mono',monospace" opacity="0.75">1200 &#215; 700</text>
  </g>
</svg>
