<svg xmlns="http://www.w3.org/2000/svg" viewBox="0 0 120 120" width="120" height="120" preserveAspectRatio="xMidYMid slice" role="img" aria-label="R2">
  <defs>
    <linearGradient id="g-reviewer-avatar-2-svg" x1="0" y1="0" x2="1" y2="1">
      <stop offset="0%" stop-color="#1A1A1A"/>
      <stop offset="100%" stop-color="#2A2A2A"/>
    </linearGradient>
    <pattern id="hz-reviewer-avatar-2-svg" width="60" height="60" patternUnits="userSpaceOnUse" patternTransform="rotate(45)">
      <rect width="30" height="60" fill="rgba(255,195,0,0.10)"/>
    </pattern>
    <pattern id="gr-reviewer-avatar-2-svg" width="40" height="40" patternUnits="userSpaceOnUse">
      <path d="M40 0 L0 0 0 40" fill="none" stroke="rgba(255,195,0,0.10)" stroke-width="1"/>
    </pattern>
  </defs>
  <rect width="100%" height="100%" fill="url(#g-reviewer-avatar-2-svg)"/>
  <rect width="100%" height="100%" fill="url(#hz-reviewer-avatar-2-svg)"/>
  <rect width="100%" height="100%" fill="url(#gr-reviewer-avatar-2-svg)"/>
  <g stroke="#FFC300" stroke-width="3" fill="none">
    <path d="M20 20 L60 20 M20 20 L20 60"/>
    <path d="M100 20 L60 20 M100 20 L100 60"/>
    <path d="M20 100 L60 100 M20 100 L20 60"/>
    <path d="M100 100 L60 100 M100 100 L100 60"/>
  </g>
  <g font-family="'Archivo','Inter',sans-serif" fill="#FFC300" text-anchor="middle">
    <text x="50%" y="45%" font-size="6" font-weight="800" letter-spacing="1">R2</text>
    <text x="50%" y="56%" font-size="4" font-family="'IBM Plex Mono',monospace" opacity="0.75">120 &#215; 120</text>
  </g>
</svg>
