<svg xmlns="http://www.w3.org/2000/svg" viewBox="0 0 1200 1400" width="1200" height="1400" preserveAspectRatio="xMidYMid slice" role="img" aria-label="WORKER-AT-HEIGHT">
  <defs>
    <linearGradient id="g-safety-belt-manufacturer-delhi-hero-svg" x1="0" y1="0" x2="1" y2="1">
      <stop offset="0%" stop-color="#FFC300"/>
      <stop offset="100%" stop-color="#FFD84D"/>
    </linearGradient>
    <pattern id="hz-safety-belt-manufacturer-delhi-hero-svg" width="60" height="60" patternUnits="userSpaceOnUse" patternTransform="rotate(45)">
      <rect width="30" height="60" fill="rgba(26,26,26,0.12)"/>
    </pattern>
    <pattern id="gr-safety-belt-manufacturer-delhi-hero-svg" width="40" height="40" patternUnits="userSpaceOnUse">
      <path d="M40 0 L0 0 0 40" fill="none" stroke="rgba(26,26,26,0.12)" stroke-width="1"/>
    </pattern>
  </defs>
  <rect width="100%" height="100%" fill="url(#g-safety-belt-manufacturer-delhi-hero-svg)"/>
  <rect width="100%" height="100%" fill="url(#hz-safety-belt-manufacturer-delhi-hero-svg)"/>
  <rect width="100%" height="100%" fill="url(#gr-safety-belt-manufacturer-delhi-hero-svg)"/>
  <g stroke="#1A1A1A" stroke-width="3" fill="none">
    <path d="M20 20 L60 20 M20 20 L20 60"/>
    <path d="M1180 20 L1140 20 M1180 20 L1180 60"/>
    <path d="M20 1380 L60 1380 M20 1380 L20 1340"/>
    <path d="M1180 1380 L1140 1380 M1180 1380 L1180 1340"/>
  </g>
  <g font-family="'Archivo','Inter',sans-serif" fill="#1A1A1A" text-anchor="middle">
    <text x="50%" y="45%" font-size="66" font-weight="800" letter-spacing="1">WORKER-AT-HEIGHT</text>
    <text x="50%" y="56%" font-size="42" font-family="'IBM Plex Mono',monospace" opacity="0.75">1200 &#215; 1400</text>
  </g>
</svg>
