<svg xmlns="http://www.w3.org/2000/svg" viewBox="0 0 32 32" width="32" height="32" role="img" aria-label="WhatsApp">
  <path fill="currentColor" d="M16 3C8.8 3 3 8.8 3 16c0 2.3.6 4.5 1.7 6.4L3 29l6.8-1.8c1.9 1 4 1.6 6.2 1.6 7.2 0 13-5.8 13-13S23.2 3 16 3zm0 23.6c-2 0-4-.6-5.7-1.6l-.4-.2-4 1 1.1-3.9-.3-.4A10.6 10.6 0 0 1 5.4 16 10.6 10.6 0 0 1 16 5.4 10.6 10.6 0 0 1 26.6 16 10.6 10.6 0 0 1 16 26.6zm6-8c-.3-.2-2-1-2.3-1.1-.3-.1-.5-.2-.8.2-.2.3-.9 1.1-1.1 1.3-.2.2-.4.2-.7.1-.3-.2-1.4-.5-2.7-1.7-1-.9-1.7-2-1.9-2.3-.2-.3 0-.5.1-.7.1-.1.3-.4.5-.6.1-.2.2-.3.3-.6.1-.2.1-.4 0-.6s-.8-1.9-1.1-2.6c-.3-.7-.6-.6-.8-.6h-.7c-.2 0-.6.1-.9.4-.3.3-1.2 1.2-1.2 2.9 0 1.7 1.2 3.4 1.4 3.6.2.2 2.4 3.6 5.7 5.1.8.3 1.4.5 1.9.7.8.3 1.5.2 2.1.1.6-.1 2-.8 2.3-1.6.3-.8.3-1.5.2-1.6-.1-.1-.3-.2-.6-.3z"/>
</svg>
